<svg width="1089" height="201" viewBox="0 0 1089 201" fill="none" xmlns="http://www.w3.org/2000/svg">
<path d="M0.408203 4.69238H50.5098C64.0592 4.69238 74.4577 5.75586 81.7051 7.88281C89.0312 10.0098 94.5062 13.082 98.1299 17.0996C101.832 21.1172 104.314 26.0013 105.574 31.752C106.913 37.4238 107.583 46.2467 107.583 58.2207V74.8818C107.583 87.0921 106.323 95.9938 103.802 101.587C101.281 107.18 96.6331 111.473 89.8584 114.467C83.1624 117.46 74.3789 118.957 63.5078 118.957H50.1553V196H0.408203V4.69238ZM50.1553 37.4238V86.1074C51.5732 86.1862 52.7943 86.2256 53.8184 86.2256C58.3874 86.2256 61.5384 85.1227 63.2715 82.917C65.0833 80.6325 65.9893 75.9453 65.9893 68.8555V53.1396C65.9893 46.6012 64.9652 42.3473 62.917 40.3779C60.8688 38.4085 56.6149 37.4238 50.1553 37.4238ZM121.881 4.69238H157.094C180.569 4.69238 196.442 5.59831 204.714 7.41016C213.064 9.22201 219.839 13.8698 225.038 21.3535C230.316 28.7585 232.955 40.6143 232.955 56.9209C232.955 71.8096 231.104 81.8141 227.401 86.9346C223.699 92.055 216.412 95.1273 205.541 96.1514C215.388 98.5934 222.005 101.863 225.393 105.959C228.78 110.055 230.868 113.837 231.655 117.303C232.522 120.69 232.955 130.104 232.955 145.544V196H186.753V132.428C186.753 122.187 185.926 115.845 184.271 113.403C182.696 110.961 178.481 109.74 171.628 109.74V196H121.881V4.69238ZM171.628 37.4238V79.9629C177.221 79.9629 181.12 79.2145 183.326 77.7178C185.611 76.1423 186.753 71.14 186.753 62.7109V52.1943C186.753 46.1286 185.65 42.1504 183.444 40.2598C181.317 38.3691 177.379 37.4238 171.628 37.4238ZM252.334 4.69238H335.285V42.9775H302.081V79.2539H333.158V115.648H302.081V157.715H338.594V196H252.334V4.69238ZM458.412 62.5928H412.21V48.4131C412.21 41.7959 411.619 37.5814 410.438 35.7695C409.256 33.9577 407.286 33.0518 404.529 33.0518C401.536 33.0518 399.251 34.2728 397.676 36.7148C396.179 39.1569 395.431 42.8594 395.431 47.8223C395.431 54.2031 396.297 59.0085 398.03 62.2383C399.685 65.4681 404.372 69.3675 412.092 73.9365C434.228 87.0921 448.171 97.8844 453.922 106.313C459.673 114.743 462.548 128.331 462.548 147.08C462.548 160.708 460.933 170.752 457.703 177.212C454.552 183.672 448.408 189.107 439.27 193.519C430.132 197.851 419.497 200.018 407.365 200.018C394.052 200.018 382.669 197.497 373.216 192.455C363.841 187.413 357.697 180.993 354.782 173.194C351.868 165.396 350.41 154.327 350.41 139.99V127.465H396.612V150.743C396.612 157.912 397.243 162.52 398.503 164.568C399.842 166.617 402.166 167.641 405.475 167.641C408.783 167.641 411.225 166.341 412.801 163.741C414.455 161.142 415.282 157.282 415.282 152.161C415.282 140.896 413.746 133.531 410.674 130.064C407.523 126.598 399.763 120.808 387.396 112.694C375.028 104.502 366.835 98.554 362.817 94.8516C358.8 91.1491 355.452 86.0286 352.773 79.4902C350.174 72.9518 348.874 64.6016 348.874 54.4395C348.874 39.7871 350.725 29.0736 354.428 22.2988C358.209 15.5241 364.275 10.2461 372.625 6.46484C380.975 2.60482 391.059 0.674805 402.875 0.674805C415.794 0.674805 426.784 2.76237 435.843 6.9375C444.981 11.1126 451.007 16.3906 453.922 22.7715C456.915 29.0736 458.412 39.8265 458.412 55.0303V62.5928ZM583.666 62.5928H537.464V48.4131C537.464 41.7959 536.873 37.5814 535.691 35.7695C534.51 33.9577 532.54 33.0518 529.783 33.0518C526.79 33.0518 524.505 34.2728 522.93 36.7148C521.433 39.1569 520.685 42.8594 520.685 47.8223C520.685 54.2031 521.551 59.0085 523.284 62.2383C524.938 65.4681 529.626 69.3675 537.346 73.9365C559.482 87.0921 573.425 97.8844 579.176 106.313C584.926 114.743 587.802 128.331 587.802 147.08C587.802 160.708 586.187 170.752 582.957 177.212C579.806 183.672 573.661 189.107 564.523 193.519C555.385 197.851 544.751 200.018 532.619 200.018C519.306 200.018 507.923 197.497 498.47 192.455C489.095 187.413 482.951 180.993 480.036 173.194C477.121 165.396 475.664 154.327 475.664 139.99V127.465H521.866V150.743C521.866 157.912 522.496 162.52 523.757 164.568C525.096 166.617 527.42 167.641 530.729 167.641C534.037 167.641 536.479 166.341 538.055 163.741C539.709 161.142 540.536 157.282 540.536 152.161C540.536 140.896 539 133.531 535.928 130.064C532.777 126.598 525.017 120.808 512.649 112.694C500.282 104.502 492.089 98.554 488.071 94.8516C484.054 91.1491 480.706 86.0286 478.027 79.4902C475.428 72.9518 474.128 64.6016 474.128 54.4395C474.128 39.7871 475.979 29.0736 479.682 22.2988C483.463 15.5241 489.529 10.2461 497.879 6.46484C506.229 2.60482 516.312 0.674805 528.129 0.674805C541.048 0.674805 552.037 2.76237 561.097 6.9375C570.235 11.1126 576.261 16.3906 579.176 22.7715C582.169 29.0736 583.666 39.8265 583.666 55.0303V62.5928ZM646.293 4.69238H696.395C709.944 4.69238 720.342 5.75586 727.59 7.88281C734.916 10.0098 740.391 13.082 744.015 17.0996C747.717 21.1172 750.199 26.0013 751.459 31.752C752.798 37.4238 753.468 46.2467 753.468 58.2207V74.8818C753.468 87.0921 752.207 95.9938 749.687 101.587C747.166 107.18 742.518 111.473 735.743 114.467C729.047 117.46 720.264 118.957 709.393 118.957H696.04V196H646.293V4.69238ZM696.04 37.4238V86.1074C697.458 86.1862 698.679 86.2256 699.703 86.2256C704.272 86.2256 707.423 85.1227 709.156 82.917C710.968 80.6325 711.874 75.9453 711.874 68.8555V53.1396C711.874 46.6012 710.85 42.3473 708.802 40.3779C706.754 38.4085 702.5 37.4238 696.04 37.4238ZM817.513 4.69238V157.715H847.763V196H767.766V4.69238H817.513ZM945.839 4.69238L974.316 196H923.388L920.906 161.614H903.063L900.109 196H848.59L873.877 4.69238H945.839ZM919.488 127.701C916.967 106.038 914.447 79.2933 911.926 47.4678C906.884 84.0199 903.733 110.764 902.473 127.701H919.488ZM1088.82 4.69238L1052.54 126.756V196H1006.46V126.756L971.48 4.69238H1017.21C1024.38 41.9535 1028.4 67.0436 1029.26 79.9629C1032.02 59.5599 1036.63 34.4697 1043.09 4.69238H1088.82Z" fill="white"/>
<path d="M0.408203 4.69238V-2.30762H-6.5918V4.69238H0.408203ZM81.7051 7.88281L79.7339 14.5995L79.7436 14.6024L79.7534 14.6052L81.7051 7.88281ZM98.1299 17.0996L92.9319 21.788L92.957 21.8158L92.9824 21.8434L98.1299 17.0996ZM105.574 31.752L98.7365 33.2506L98.7486 33.3057L98.7615 33.3605L105.574 31.752ZM89.8584 114.467L87.0293 108.064L87.0154 108.07L87.0015 108.076L89.8584 114.467ZM50.1553 118.957V111.957H43.1553V118.957H50.1553ZM50.1553 196V203H57.1553V196H50.1553ZM0.408203 196H-6.5918V203H0.408203V196ZM50.1553 37.4238V30.4238H43.1553V37.4238H50.1553ZM50.1553 86.1074H43.1553V92.7293L49.767 93.0966L50.1553 86.1074ZM63.2715 82.917L57.787 78.5672L57.7771 78.5797L57.7673 78.5922L63.2715 82.917ZM0.408203 11.6924H50.5098V-2.30762H0.408203V11.6924ZM50.5098 11.6924C63.8314 11.6924 73.4434 12.7534 79.7339 14.5995L83.6763 1.16609C75.472 -1.2417 64.2871 -2.30762 50.5098 -2.30762V11.6924ZM79.7534 14.6052C86.3182 16.5111 90.4676 19.0558 92.9319 21.788L103.328 12.4112C98.5448 7.10823 91.7443 3.50839 83.6567 1.16039L79.7534 14.6052ZM92.9824 21.8434C95.7787 24.8777 97.7205 28.6151 98.7365 33.2506L112.412 30.2533C110.907 23.3875 107.886 17.3567 103.277 12.3558L92.9824 21.8434ZM98.7615 33.3605C99.9045 38.2013 100.583 46.3457 100.583 58.2207H114.583C114.583 46.1477 113.922 36.6464 112.387 30.1434L98.7615 33.3605ZM100.583 58.2207V74.8818H114.583V58.2207H100.583ZM100.583 74.8818C100.583 86.8903 99.3009 94.5374 97.42 98.7106L110.184 104.463C113.344 97.4502 114.583 87.2939 114.583 74.8818H100.583ZM97.42 98.7106C95.7488 102.418 92.5695 105.616 87.0293 108.064L92.6875 120.87C100.697 117.331 106.813 111.942 110.184 104.463L97.42 98.7106ZM87.0015 108.076C81.5301 110.522 73.8279 111.957 63.5078 111.957V125.957C74.9299 125.957 84.7948 124.398 92.7153 120.857L87.0015 108.076ZM63.5078 111.957H50.1553V125.957H63.5078V111.957ZM43.1553 118.957V196H57.1553V118.957H43.1553ZM50.1553 189H0.408203V203H50.1553V189ZM7.4082 196V4.69238H-6.5918V196H7.4082ZM43.1553 37.4238V86.1074H57.1553V37.4238H43.1553ZM49.767 93.0966C51.2689 93.1801 52.6262 93.2256 53.8184 93.2256V79.2256C52.9624 79.2256 51.8776 79.1923 50.5436 79.1182L49.767 93.0966ZM53.8184 93.2256C59.1942 93.2256 65.0634 91.9665 68.7757 87.2417L57.7673 78.5922C57.8709 78.4603 57.8543 78.596 57.2959 78.7914C56.6815 79.0065 55.5852 79.2256 53.8184 79.2256V93.2256ZM68.756 87.2668C70.6703 84.8531 71.6368 81.8406 72.1826 79.0166C72.7502 76.08 72.9893 72.6539 72.9893 68.8555H58.9893C58.9893 72.1469 58.7754 74.6093 58.437 76.3599C58.0769 78.223 57.6846 78.6964 57.787 78.5672L68.756 87.2668ZM72.9893 68.8555V53.1396H58.9893V68.8555H72.9893ZM72.9893 53.1396C72.9893 49.5615 72.7146 46.2641 72.0268 43.407C71.3581 40.6296 70.1445 37.6164 67.7688 35.3321L58.0652 45.4238C57.7377 45.1088 58.0602 45.2073 58.4156 46.6838C58.7519 48.0806 58.9893 50.1794 58.9893 53.1396H72.9893ZM67.7688 35.3321C65.4701 33.1218 62.5195 31.9794 59.7691 31.3427C56.9419 30.6882 53.689 30.4238 50.1553 30.4238V44.4238C53.0812 44.4238 55.1851 44.6518 56.6118 44.982C58.1153 45.33 58.3157 45.6646 58.0652 45.4238L67.7688 35.3321ZM121.881 4.69238V-2.30762H114.881V4.69238H121.881ZM204.714 7.41016L203.216 14.248L203.23 14.251L204.714 7.41016ZM225.038 21.3535L219.289 25.3474L219.313 25.3821L219.338 25.4164L225.038 21.3535ZM205.541 96.1514L204.885 89.1822L203.856 102.946L205.541 96.1514ZM231.655 117.303L224.829 118.854L224.85 118.946L224.874 119.038L231.655 117.303ZM232.955 196V203H239.955V196H232.955ZM186.753 196H179.753V203H186.753V196ZM184.271 113.403L178.389 117.198L178.432 117.264L178.476 117.329L184.271 113.403ZM171.628 109.74V102.74H164.628V109.74H171.628ZM171.628 196V203H178.628V196H171.628ZM121.881 196H114.881V203H121.881V196ZM171.628 37.4238V30.4238H164.628V37.4238H171.628ZM171.628 79.9629H164.628V86.9629H171.628V79.9629ZM183.326 77.7178L187.257 83.5101L187.279 83.4953L187.3 83.4803L183.326 77.7178ZM183.444 40.2598L178.794 45.4916L178.841 45.5335L178.889 45.5746L183.444 40.2598ZM121.881 11.6924H157.094V-2.30762H121.881V11.6924ZM157.094 11.6924C180.654 11.6924 195.793 12.622 203.216 14.248L206.212 0.572281C197.092 -1.42541 180.484 -2.30762 157.094 -2.30762V11.6924ZM203.23 14.251C209.727 15.6609 215.027 19.2119 219.289 25.3474L230.787 17.3596C224.651 8.52767 216.401 2.78314 206.198 0.56934L203.23 14.251ZM219.338 25.4164C223.329 31.0156 225.955 41.0586 225.955 56.9209H239.955C239.955 40.1699 237.303 26.5013 230.738 17.2906L219.338 25.4164ZM225.955 56.9209C225.955 64.1149 225.505 69.879 224.683 74.3172C223.845 78.8511 222.712 81.474 221.729 82.833L233.074 91.0362C235.794 87.2747 237.438 82.3351 238.45 76.8645C239.48 71.298 239.955 64.6155 239.955 56.9209H225.955ZM221.729 82.833C219.832 85.4557 215.136 88.2165 204.885 89.1822L206.198 103.121C217.688 102.038 227.565 98.6543 233.074 91.0362L221.729 82.833ZM203.856 102.946C213.378 105.307 218.107 108.133 219.998 110.42L230.787 101.498C225.903 95.5922 217.398 91.8799 207.226 89.3572L203.856 102.946ZM219.998 110.42C223.004 114.055 224.375 116.854 224.829 118.854L238.481 115.751C237.36 110.819 234.555 106.055 230.787 101.498L219.998 110.42ZM224.874 119.038C225.104 119.939 225.418 122.454 225.638 127.225C225.847 131.779 225.955 137.873 225.955 145.544H239.955C239.955 137.775 239.846 131.441 239.623 126.582C239.409 121.939 239.073 118.053 238.437 115.568L224.874 119.038ZM225.955 145.544V196H239.955V145.544H225.955ZM232.955 189H186.753V203H232.955V189ZM193.753 196V132.428H179.753V196H193.753ZM193.753 132.428C193.753 127.161 193.543 122.68 193.074 119.086C192.647 115.813 191.889 112.167 190.067 109.477L178.476 117.329C178.309 117.082 178.791 117.827 179.191 120.896C179.55 123.644 179.753 127.453 179.753 132.428H193.753ZM190.154 109.608C188.083 106.399 184.807 104.781 181.877 103.932C178.886 103.066 175.388 102.74 171.628 102.74V116.74C174.721 116.74 176.758 117.025 177.981 117.38C179.265 117.752 178.885 117.966 178.389 117.198L190.154 109.608ZM164.628 109.74V196H178.628V109.74H164.628ZM171.628 189H121.881V203H171.628V189ZM128.881 196V4.69238H114.881V196H128.881ZM164.628 37.4238V79.9629H178.628V37.4238H164.628ZM171.628 86.9629C177.379 86.9629 183.171 86.2825 187.257 83.5101L179.396 71.9254C179.405 71.9188 179.279 72.0047 178.938 72.1302C178.6 72.2547 178.108 72.3966 177.428 72.5271C176.049 72.7917 174.146 72.9629 171.628 72.9629V86.9629ZM187.3 83.4803C190.695 81.1394 192.054 77.2603 192.721 74.3427C193.459 71.1099 193.753 67.1611 193.753 62.7109H179.753C179.753 66.6898 179.476 69.4566 179.072 71.2261C178.596 73.3108 178.242 72.7206 179.352 71.9553L187.3 83.4803ZM193.753 62.7109V52.1943H179.753V62.7109H193.753ZM193.753 52.1943C193.753 48.7961 193.45 45.6018 192.671 42.7913C191.898 40.0029 190.517 37.1024 188 34.945L178.889 45.5746C178.578 45.3078 178.85 45.3417 179.18 46.5314C179.504 47.6992 179.753 49.5268 179.753 52.1943H193.753ZM188.095 35.0279C183.896 31.2952 177.606 30.4238 171.628 30.4238V44.4238C174.163 44.4238 175.998 44.6364 177.261 44.9395C178.556 45.2502 178.878 45.5667 178.794 45.4916L188.095 35.0279ZM252.334 4.69238V-2.30762H245.334V4.69238H252.334ZM335.285 4.69238H342.285V-2.30762H335.285V4.69238ZM335.285 42.9775V49.9775H342.285V42.9775H335.285ZM302.081 42.9775V35.9775H295.081V42.9775H302.081ZM302.081 79.2539H295.081V86.2539H302.081V79.2539ZM333.158 79.2539H340.158V72.2539H333.158V79.2539ZM333.158 115.648V122.648H340.158V115.648H333.158ZM302.081 115.648V108.648H295.081V115.648H302.081ZM302.081 157.715H295.081V164.715H302.081V157.715ZM338.594 157.715H345.594V150.715H338.594V157.715ZM338.594 196V203H345.594V196H338.594ZM252.334 196H245.334V203H252.334V196ZM252.334 11.6924H335.285V-2.30762H252.334V11.6924ZM328.285 4.69238V42.9775H342.285V4.69238H328.285ZM335.285 35.9775H302.081V49.9775H335.285V35.9775ZM295.081 42.9775V79.2539H309.081V42.9775H295.081ZM302.081 86.2539H333.158V72.2539H302.081V86.2539ZM326.158 79.2539V115.648H340.158V79.2539H326.158ZM333.158 108.648H302.081V122.648H333.158V108.648ZM295.081 115.648V157.715H309.081V115.648H295.081ZM302.081 164.715H338.594V150.715H302.081V164.715ZM331.594 157.715V196H345.594V157.715H331.594ZM338.594 189H252.334V203H338.594V189ZM259.334 196V4.69238H245.334V196H259.334ZM458.412 62.5928V69.5928H465.412V62.5928H458.412ZM412.21 62.5928H405.21V69.5928H412.21V62.5928ZM397.676 36.7148L391.794 32.92L391.75 32.9879L391.708 33.0569L397.676 36.7148ZM398.03 62.2383L404.261 59.0472L404.23 58.9876L404.198 58.9286L398.03 62.2383ZM412.092 73.9365L415.668 67.919L415.657 67.9125L412.092 73.9365ZM457.703 177.212L451.442 174.081L451.427 174.112L451.412 174.143L457.703 177.212ZM439.27 193.519L442.268 199.844L442.291 199.833L442.313 199.822L439.27 193.519ZM373.216 192.455L369.9 198.62L369.911 198.626L369.922 198.632L373.216 192.455ZM350.41 127.465V120.465H343.41V127.465H350.41ZM396.612 127.465H403.612V120.465H396.612V127.465ZM398.503 164.568L392.541 168.237L392.592 168.319L392.644 168.399L398.503 164.568ZM412.801 163.741L406.895 159.983L406.854 160.048L406.814 160.113L412.801 163.741ZM410.674 130.064L415.912 125.421L415.883 125.388L415.853 125.356L410.674 130.064ZM387.396 112.694L383.53 118.53L383.543 118.539L383.556 118.547L387.396 112.694ZM352.773 79.4902L346.269 82.0765L346.282 82.1101L346.296 82.1437L352.773 79.4902ZM354.428 22.2988L348.315 18.8873L348.3 18.9145L348.285 18.9419L354.428 22.2988ZM372.625 6.46484L375.513 12.8415L375.537 12.8303L375.562 12.8188L372.625 6.46484ZM435.843 6.9375L432.913 13.2948L432.923 13.2996L432.934 13.3044L435.843 6.9375ZM453.922 22.7715L447.555 25.6799L447.576 25.7276L447.599 25.7749L453.922 22.7715ZM458.412 55.5928H412.21V69.5928H458.412V55.5928ZM419.21 62.5928V48.4131H405.21V62.5928H419.21ZM419.21 48.4131C419.21 44.9365 419.057 41.8718 418.699 39.3175C418.373 36.9907 417.77 34.1983 416.301 31.9457L404.574 39.5934C404.287 39.1526 404.57 39.3734 404.835 41.2611C405.067 42.9213 405.21 45.2725 405.21 48.4131H419.21ZM416.301 31.9457C413.471 27.6072 408.917 26.0518 404.529 26.0518V40.0518C405.163 40.0518 405.295 40.1581 405.149 40.0906C405.071 40.0546 404.955 39.9875 404.832 39.8812C404.708 39.775 404.624 39.669 404.574 39.5934L416.301 31.9457ZM404.529 26.0518C399.244 26.0518 394.704 28.4084 391.794 32.92L403.558 40.5097C403.677 40.3249 403.766 40.2306 403.809 40.1898C403.849 40.1518 403.867 40.1427 403.87 40.1411C403.874 40.139 403.908 40.1208 403.995 40.1006C404.086 40.0794 404.257 40.0518 404.529 40.0518V26.0518ZM391.708 33.0569C389.205 37.1399 388.431 42.3975 388.431 47.8223H402.431C402.431 43.3213 403.153 41.174 403.644 40.3728L391.708 33.0569ZM388.431 47.8223C388.431 54.6178 389.316 60.8033 391.862 65.548L404.198 58.9286C403.278 57.2136 402.431 53.7885 402.431 47.8223H388.431ZM391.8 65.4294C393.254 68.269 395.667 70.7684 398.31 72.9665C401.039 75.2369 404.481 77.566 408.527 79.9606L415.657 67.9125C411.983 65.738 409.221 63.8329 407.263 62.204C405.218 60.5026 404.46 59.4373 404.261 59.0472L391.8 65.4294ZM408.516 79.954C419.439 86.4457 428.198 92.2713 434.867 97.433C441.616 102.657 445.871 106.934 448.139 110.259L459.704 102.368C456.222 97.2637 450.63 91.9304 443.436 86.3619C436.161 80.7313 426.881 74.5829 415.668 67.919L408.516 79.954ZM448.139 110.259C452.671 116.901 455.548 128.722 455.548 147.08H469.548C469.548 127.94 466.674 112.584 459.704 102.368L448.139 110.259ZM455.548 147.08C455.548 160.422 453.923 169.119 451.442 174.081L463.964 180.342C467.943 172.385 469.548 160.995 469.548 147.08H455.548ZM451.412 174.143C449.184 178.711 444.519 183.211 436.226 187.215L442.313 199.822C452.296 195.003 459.921 188.633 463.995 180.281L451.412 174.143ZM436.271 187.194C428.238 191.002 418.664 193.018 407.365 193.018V207.018C420.33 207.018 432.025 204.701 442.268 199.844L436.271 187.194ZM407.365 193.018C394.927 193.018 384.732 190.664 376.51 186.279L369.922 198.632C380.606 204.33 393.177 207.018 407.365 207.018V193.018ZM376.531 186.29C368.224 181.822 363.509 176.55 361.339 170.744L348.225 175.645C351.885 185.437 359.459 193.004 369.9 198.62L376.531 186.29ZM361.339 170.744C358.855 164.098 357.41 154.005 357.41 139.99H343.41C343.41 154.65 344.88 166.693 348.225 175.645L361.339 170.744ZM357.41 139.99V127.465H343.41V139.99H357.41ZM350.41 134.465H396.612V120.465H350.41V134.465ZM389.612 127.465V150.743H403.612V127.465H389.612ZM389.612 150.743C389.612 154.495 389.775 157.786 390.15 160.524C390.496 163.059 391.119 165.926 392.541 168.237L404.465 160.9C404.626 161.162 404.304 160.701 404.02 158.627C403.765 156.758 403.612 154.16 403.612 150.743H389.612ZM392.644 168.399C395.71 173.088 400.724 174.641 405.475 174.641V160.641C404.511 160.641 404.12 160.488 404.073 160.467C404.059 160.461 404.111 160.483 404.19 160.549C404.271 160.617 404.33 160.689 404.362 160.738L392.644 168.399ZM405.475 174.641C410.97 174.641 415.813 172.276 418.787 167.369L406.814 160.113C406.704 160.296 406.62 160.386 406.581 160.424C406.545 160.459 406.522 160.474 406.499 160.487C406.471 160.501 406.206 160.641 405.475 160.641V174.641ZM418.706 167.499C421.406 163.258 422.282 157.824 422.282 152.161H408.282C408.282 156.739 407.505 159.025 406.895 159.983L418.706 167.499ZM422.282 152.161C422.282 146.26 421.884 141.082 420.983 136.759C420.105 132.55 418.613 128.469 415.912 125.421L405.435 134.708C405.806 135.126 406.619 136.461 407.278 139.617C407.912 142.66 408.282 146.797 408.282 152.161H422.282ZM415.853 125.356C411.998 121.115 403.445 114.852 391.235 106.841L383.556 118.547C396.081 126.765 403.048 132.082 405.494 134.773L415.853 125.356ZM391.261 106.859C378.85 98.6368 371.109 92.9741 367.561 89.7041L358.074 99.9991C362.56 104.134 371.206 110.366 383.53 118.53L391.261 106.859ZM367.561 89.7041C364.484 86.8683 361.651 82.6944 359.251 76.8368L346.296 82.1437C349.253 89.3629 353.116 95.4298 358.074 99.9991L367.561 89.7041ZM359.278 76.904C357.117 71.4679 355.874 64.0765 355.874 54.4395H341.874C341.874 65.1266 343.231 74.4358 346.269 82.0765L359.278 76.904ZM355.874 54.4395C355.874 40.0827 357.738 30.8373 360.57 25.6558L348.285 18.9419C343.712 27.3098 341.874 39.4915 341.874 54.4395H355.874ZM360.54 25.7104C363.466 20.4689 368.271 16.1206 375.513 12.8415L369.737 0.0881645C360.278 4.37163 352.952 10.5793 348.315 18.8873L360.54 25.7104ZM375.562 12.8188C382.769 9.48734 391.795 7.6748 402.875 7.6748V-6.3252C390.322 -6.3252 379.181 -4.27771 369.688 0.110884L375.562 12.8188ZM402.875 7.6748C415.069 7.6748 425.001 9.64864 432.913 13.2948L438.773 0.580167C428.566 -4.1239 416.519 -6.3252 402.875 -6.3252V7.6748ZM432.934 13.3044C441.193 17.0779 445.589 21.376 447.555 25.6799L460.289 19.863C456.426 11.4053 448.769 5.14734 438.752 0.570586L432.934 13.3044ZM447.599 25.7749C449.868 30.5517 451.412 39.9207 451.412 55.0303H465.412C465.412 39.7323 463.963 27.5954 460.245 19.7681L447.599 25.7749ZM451.412 55.0303V62.5928H465.412V55.0303H451.412ZM583.666 62.5928V69.5928H590.666V62.5928H583.666ZM537.464 62.5928H530.464V69.5928H537.464V62.5928ZM522.93 36.7148L517.048 32.92L517.004 32.9879L516.961 33.0569L522.93 36.7148ZM523.284 62.2383L529.514 59.0472L529.484 58.9876L529.452 58.9286L523.284 62.2383ZM537.346 73.9365L540.922 67.919L540.911 67.9125L537.346 73.9365ZM582.957 177.212L576.696 174.081L576.681 174.112L576.666 174.143L582.957 177.212ZM564.523 193.519L567.522 199.844L567.545 199.833L567.567 199.822L564.523 193.519ZM498.47 192.455L495.154 198.62L495.165 198.626L495.176 198.632L498.47 192.455ZM475.664 127.465V120.465H468.664V127.465H475.664ZM521.866 127.465H528.866V120.465H521.866V127.465ZM523.757 164.568L517.795 168.237L517.846 168.319L517.898 168.399L523.757 164.568ZM538.055 163.741L532.149 159.983L532.108 160.048L532.068 160.113L538.055 163.741ZM535.928 130.064L541.166 125.421L541.137 125.388L541.107 125.356L535.928 130.064ZM512.649 112.694L508.784 118.53L508.797 118.539L508.81 118.547L512.649 112.694ZM478.027 79.4902L471.523 82.0765L471.536 82.1101L471.55 82.1437L478.027 79.4902ZM479.682 22.2988L473.569 18.8873L473.554 18.9145L473.539 18.9419L479.682 22.2988ZM497.879 6.46484L500.766 12.8415L500.791 12.8303L500.816 12.8188L497.879 6.46484ZM561.097 6.9375L558.167 13.2948L558.177 13.2996L558.188 13.3044L561.097 6.9375ZM579.176 22.7715L572.809 25.6799L572.83 25.7276L572.853 25.7749L579.176 22.7715ZM583.666 55.5928H537.464V69.5928H583.666V55.5928ZM544.464 62.5928V48.4131H530.464V62.5928H544.464ZM544.464 48.4131C544.464 44.9365 544.311 41.8718 543.953 39.3175C543.627 36.9907 543.024 34.1983 541.555 31.9457L529.828 39.5934C529.541 39.1526 529.824 39.3734 530.089 41.2611C530.321 42.9213 530.464 45.2725 530.464 48.4131H544.464ZM541.555 31.9457C538.725 27.6072 534.171 26.0518 529.783 26.0518V40.0518C530.417 40.0518 530.549 40.1581 530.403 40.0906C530.324 40.0546 530.209 39.9875 530.086 39.8812C529.962 39.775 529.877 39.669 529.828 39.5934L541.555 31.9457ZM529.783 26.0518C524.498 26.0518 519.958 28.4084 517.048 32.92L528.812 40.5097C528.931 40.3249 529.02 40.2306 529.063 40.1898C529.103 40.1518 529.121 40.1427 529.124 40.1411C529.128 40.139 529.161 40.1208 529.249 40.1006C529.34 40.0794 529.511 40.0518 529.783 40.0518V26.0518ZM516.961 33.0569C514.459 37.1399 513.685 42.3975 513.685 47.8223H527.685C527.685 43.3213 528.407 41.174 528.898 40.3728L516.961 33.0569ZM513.685 47.8223C513.685 54.6178 514.57 60.8033 517.116 65.548L529.452 58.9286C528.532 57.2136 527.685 53.7885 527.685 47.8223H513.685ZM517.054 65.4294C518.508 68.269 520.921 70.7684 523.563 72.9665C526.293 75.2369 529.734 77.566 533.78 79.9606L540.911 67.9125C537.237 65.738 534.475 63.8329 532.517 62.204C530.472 60.5026 529.714 59.4373 529.514 59.0472L517.054 65.4294ZM533.769 79.954C544.693 86.4457 553.452 92.2713 560.121 97.433C566.87 102.657 571.125 106.934 573.393 110.259L584.958 102.368C581.476 97.2637 575.884 91.9304 568.69 86.3619C561.415 80.7313 552.135 74.5829 540.922 67.919L533.769 79.954ZM573.393 110.259C577.925 116.901 580.802 128.722 580.802 147.08H594.802C594.802 127.94 591.928 112.584 584.958 102.368L573.393 110.259ZM580.802 147.08C580.802 160.422 579.177 169.119 576.696 174.081L589.218 180.342C593.196 172.385 594.802 160.995 594.802 147.08H580.802ZM576.666 174.143C574.438 178.711 569.773 183.211 561.48 187.215L567.567 199.822C577.55 195.003 585.174 188.633 589.248 180.281L576.666 174.143ZM561.524 187.194C553.492 191.002 543.918 193.018 532.619 193.018V207.018C545.584 207.018 557.279 204.701 567.522 199.844L561.524 187.194ZM532.619 193.018C520.181 193.018 509.986 190.664 501.764 186.279L495.176 198.632C505.86 204.33 518.431 207.018 532.619 207.018V193.018ZM501.785 186.29C493.478 181.822 488.763 176.55 486.593 170.744L473.479 175.645C477.139 185.437 484.713 193.004 495.154 198.62L501.785 186.29ZM486.593 170.744C484.109 164.098 482.664 154.005 482.664 139.99H468.664C468.664 154.65 470.134 166.693 473.479 175.645L486.593 170.744ZM482.664 139.99V127.465H468.664V139.99H482.664ZM475.664 134.465H521.866V120.465H475.664V134.465ZM514.866 127.465V150.743H528.866V127.465H514.866ZM514.866 150.743C514.866 154.495 515.029 157.786 515.403 160.524C515.75 163.059 516.373 165.926 517.795 168.237L529.718 160.9C529.88 161.162 529.558 160.701 529.274 158.627C529.019 156.758 528.866 154.16 528.866 150.743H514.866ZM517.898 168.399C520.964 173.088 525.978 174.641 530.729 174.641V160.641C529.765 160.641 529.374 160.488 529.327 160.467C529.313 160.461 529.365 160.483 529.444 160.549C529.525 160.617 529.584 160.689 529.616 160.738L517.898 168.399ZM530.729 174.641C536.224 174.641 541.067 172.276 544.041 167.369L532.068 160.113C531.957 160.296 531.874 160.386 531.835 160.424C531.799 160.459 531.776 160.474 531.753 160.487C531.725 160.501 531.46 160.641 530.729 160.641V174.641ZM543.96 167.499C546.659 163.258 547.536 157.824 547.536 152.161H533.536C533.536 156.739 532.759 159.025 532.149 159.983L543.96 167.499ZM547.536 152.161C547.536 146.26 547.138 141.082 546.237 136.759C545.359 132.55 543.867 128.469 541.166 125.421L530.689 134.708C531.06 135.126 531.873 136.461 532.531 139.617C533.166 142.66 533.536 146.797 533.536 152.161H547.536ZM541.107 125.356C537.252 121.115 528.699 114.852 516.489 106.841L508.81 118.547C521.335 126.765 528.302 132.082 530.748 134.773L541.107 125.356ZM516.515 106.859C504.103 98.6368 496.363 92.9741 492.815 89.7041L483.328 99.9991C487.814 104.134 496.46 110.366 508.784 118.53L516.515 106.859ZM492.815 89.7041C489.738 86.8683 486.904 82.6944 484.505 76.8368L471.55 82.1437C474.507 89.3629 478.369 95.4298 483.328 99.9991L492.815 89.7041ZM484.532 76.904C482.371 71.4679 481.128 64.0765 481.128 54.4395H467.128C467.128 65.1266 468.485 74.4358 471.523 82.0765L484.532 76.904ZM481.128 54.4395C481.128 40.0827 482.992 30.8373 485.824 25.6558L473.539 18.9419C468.966 27.3098 467.128 39.4915 467.128 54.4395H481.128ZM485.794 25.7104C488.72 20.4689 493.525 16.1206 500.766 12.8415L494.991 0.0881645C485.532 4.37163 478.206 10.5793 473.569 18.8873L485.794 25.7104ZM500.816 12.8188C508.023 9.48734 517.049 7.6748 528.129 7.6748V-6.3252C515.576 -6.3252 504.435 -4.27771 494.942 0.110884L500.816 12.8188ZM528.129 7.6748C540.323 7.6748 550.255 9.64864 558.167 13.2948L564.027 0.580167C553.82 -4.1239 541.773 -6.3252 528.129 -6.3252V7.6748ZM558.188 13.3044C566.447 17.0779 570.843 21.376 572.809 25.6799L585.543 19.863C581.68 11.4053 574.023 5.14734 564.006 0.570586L558.188 13.3044ZM572.853 25.7749C575.122 30.5517 576.666 39.9207 576.666 55.0303H590.666C590.666 39.7323 589.217 27.5954 585.499 19.7681L572.853 25.7749ZM576.666 55.0303V62.5928H590.666V55.0303H576.666ZM646.293 4.69238V-2.30762H639.293V4.69238H646.293ZM727.59 7.88281L725.619 14.5995L725.628 14.6024L725.638 14.6052L727.59 7.88281ZM744.015 17.0996L738.817 21.788L738.842 21.8158L738.867 21.8434L744.015 17.0996ZM751.459 31.752L744.621 33.2506L744.633 33.3057L744.646 33.3605L751.459 31.752ZM735.743 114.467L732.914 108.064L732.9 108.07L732.886 108.076L735.743 114.467ZM696.04 118.957V111.957H689.04V118.957H696.04ZM696.04 196V203H703.04V196H696.04ZM646.293 196H639.293V203H646.293V196ZM696.04 37.4238V30.4238H689.04V37.4238H696.04ZM696.04 86.1074H689.04V92.7293L695.652 93.0966L696.04 86.1074ZM709.156 82.917L703.672 78.5672L703.662 78.5797L703.652 78.5922L709.156 82.917ZM646.293 11.6924H696.395V-2.30762H646.293V11.6924ZM696.395 11.6924C709.716 11.6924 719.328 12.7534 725.619 14.5995L729.561 1.16609C721.357 -1.2417 710.172 -2.30762 696.395 -2.30762V11.6924ZM725.638 14.6052C732.203 16.5111 736.352 19.0558 738.817 21.788L749.213 12.4112C744.43 7.10823 737.629 3.50839 729.542 1.16039L725.638 14.6052ZM738.867 21.8434C741.664 24.8777 743.605 28.6151 744.621 33.2506L758.297 30.2533C756.792 23.3875 753.771 17.3567 749.162 12.3558L738.867 21.8434ZM744.646 33.3605C745.789 38.2013 746.468 46.3457 746.468 58.2207H760.468C760.468 46.1477 759.807 36.6464 758.272 30.1434L744.646 33.3605ZM746.468 58.2207V74.8818H760.468V58.2207H746.468ZM746.468 74.8818C746.468 86.8903 745.186 94.5374 743.305 98.7106L756.068 104.463C759.229 97.4502 760.468 87.2939 760.468 74.8818H746.468ZM743.305 98.7106C741.634 102.418 738.454 105.616 732.914 108.064L738.572 120.87C746.582 117.331 752.698 111.942 756.068 104.463L743.305 98.7106ZM732.886 108.076C727.415 110.522 719.713 111.957 709.393 111.957V125.957C720.815 125.957 730.68 124.398 738.6 120.857L732.886 108.076ZM709.393 111.957H696.04V125.957H709.393V111.957ZM689.04 118.957V196H703.04V118.957H689.04ZM696.04 189H646.293V203H696.04V189ZM653.293 196V4.69238H639.293V196H653.293ZM689.04 37.4238V86.1074H703.04V37.4238H689.04ZM695.652 93.0966C697.154 93.1801 698.511 93.2256 699.703 93.2256V79.2256C698.847 79.2256 697.762 79.1923 696.428 79.1182L695.652 93.0966ZM699.703 93.2256C705.079 93.2256 710.948 91.9665 714.66 87.2417L703.652 78.5922C703.756 78.4603 703.739 78.596 703.181 78.7914C702.566 79.0065 701.47 79.2256 699.703 79.2256V93.2256ZM714.641 87.2668C716.555 84.8531 717.522 81.8406 718.067 79.0166C718.635 76.08 718.874 72.6539 718.874 68.8555H704.874C704.874 72.1469 704.66 74.6093 704.322 76.3599C703.962 78.223 703.569 78.6964 703.672 78.5672L714.641 87.2668ZM718.874 68.8555V53.1396H704.874V68.8555H718.874ZM718.874 53.1396C718.874 49.5615 718.599 46.2641 717.912 43.407C717.243 40.6296 716.029 37.6164 713.654 35.3321L703.95 45.4238C703.622 45.1088 703.945 45.2073 704.3 46.6838C704.637 48.0806 704.874 50.1794 704.874 53.1396H718.874ZM713.654 35.3321C711.355 33.1218 708.404 31.9794 705.654 31.3427C702.827 30.6882 699.574 30.4238 696.04 30.4238V44.4238C698.966 44.4238 701.07 44.6518 702.497 44.982C704 45.33 704.2 45.6646 703.95 45.4238L713.654 35.3321ZM817.513 4.69238H824.513V-2.30762H817.513V4.69238ZM817.513 157.715H810.513V164.715H817.513V157.715ZM847.763 157.715H854.763V150.715H847.763V157.715ZM847.763 196V203H854.763V196H847.763ZM767.766 196H760.766V203H767.766V196ZM767.766 4.69238V-2.30762H760.766V4.69238H767.766ZM810.513 4.69238V157.715H824.513V4.69238H810.513ZM817.513 164.715H847.763V150.715H817.513V164.715ZM840.763 157.715V196H854.763V157.715H840.763ZM847.763 189H767.766V203H847.763V189ZM774.766 196V4.69238H760.766V196H774.766ZM767.766 11.6924H817.513V-2.30762H767.766V11.6924ZM945.839 4.69238L952.763 3.66174L951.874 -2.30762H945.839V4.69238ZM974.316 196V203H982.436L981.24 194.969L974.316 196ZM923.388 196L916.406 196.504L916.875 203H923.388V196ZM920.906 161.614L927.888 161.11L927.419 154.614H920.906V161.614ZM903.063 161.614V154.614H896.639L896.089 161.015L903.063 161.614ZM900.109 196V203H906.534L907.084 196.599L900.109 196ZM848.59 196L841.65 195.083L840.604 203H848.59V196ZM873.877 4.69238V-2.30762H867.741L866.937 3.7751L873.877 4.69238ZM919.488 127.701V134.701H927.35L926.441 126.892L919.488 127.701ZM911.926 47.4678L918.904 46.915L904.991 46.5113L911.926 47.4678ZM902.473 127.701L895.492 127.182L894.932 134.701H902.473V127.701ZM938.915 5.72303L967.393 197.031L981.24 194.969L952.763 3.66174L938.915 5.72303ZM974.316 189H923.388V203H974.316V189ZM930.37 195.496L927.888 161.11L913.924 162.118L916.406 196.504L930.37 195.496ZM920.906 154.614H903.063V168.614H920.906V154.614ZM896.089 161.015L893.135 195.401L907.084 196.599L910.038 162.213L896.089 161.015ZM900.109 189H848.59V203H900.109V189ZM855.529 196.917L880.817 5.60967L866.937 3.7751L841.65 195.083L855.529 196.917ZM873.877 11.6924H945.839V-2.30762H873.877V11.6924ZM926.441 126.892C923.934 105.343 921.421 78.6902 918.904 46.915L904.948 48.0205C907.472 79.8963 910.001 106.732 912.535 128.51L926.441 126.892ZM904.991 46.5113C899.947 83.0813 896.77 110.011 895.492 127.182L909.453 128.221C910.696 111.518 913.821 84.9584 918.86 48.4242L904.991 46.5113ZM902.473 134.701H919.488V120.701H902.473V134.701ZM1088.82 4.69238L1095.53 6.68653L1098.2 -2.30762H1088.82V4.69238ZM1052.54 126.756L1045.83 124.762L1045.54 125.738V126.756H1052.54ZM1052.54 196V203H1059.54V196H1052.54ZM1006.46 196H999.457V203H1006.46V196ZM1006.46 126.756H1013.46V125.773L1013.19 124.828L1006.46 126.756ZM971.48 4.69238V-2.30762H962.193L964.751 6.62059L971.48 4.69238ZM1017.21 4.69238L1024.08 3.36991L1022.99 -2.30762H1017.21V4.69238ZM1029.26 79.9629L1022.28 80.4314L1036.2 80.9003L1029.26 79.9629ZM1043.09 4.69238V-2.30762H1037.44L1036.25 3.20838L1043.09 4.69238ZM1082.11 2.69824L1045.83 124.762L1059.25 128.75L1095.53 6.68653L1082.11 2.69824ZM1045.54 126.756V196H1059.54V126.756H1045.54ZM1052.54 189H1006.46V203H1052.54V189ZM1013.46 196V126.756H999.457V196H1013.46ZM1013.19 124.828L978.21 2.76417L964.751 6.62059L999.728 128.684L1013.19 124.828ZM971.48 11.6924H1017.21V-2.30762H971.48V11.6924ZM1010.34 6.01485C1017.52 43.3398 1021.45 68.0117 1022.28 80.4314L1036.25 79.4944C1035.35 66.0755 1031.24 40.5671 1024.08 3.36991L1010.34 6.01485ZM1036.2 80.9003C1038.92 60.7449 1043.49 35.8497 1049.93 6.17638L1036.25 3.20838C1029.76 33.0897 1025.12 58.3749 1022.33 79.0255L1036.2 80.9003ZM1043.09 11.6924H1088.82V-2.30762H1043.09V11.6924Z" fill="black"/>
</svg>
